<svg width="23" height="23" viewBox="0 0 23 23" fill="none" xmlns="http://www.w3.org/2000/svg">
<rect opacity="0.1" width="22.5185" height="22.5185" rx="4" fill="white"/>
<path fill-rule="evenodd" clip-rule="evenodd" d="M6.22408 11.259C6.22408 9.24693 6.22408 8.24088 6.70354 7.51625C6.91765 7.19267 7.19476 6.91555 7.51834 6.70145C8.24297 6.22198 9.24902 6.22198 11.2611 6.22198C13.2732 6.22198 14.2793 6.22198 15.0039 6.70145C15.3275 6.91555 15.6046 7.19267 15.8187 7.51625C16.2981 8.24088 16.2981 9.24693 16.2981 11.259C16.2981 13.2711 16.2981 14.2772 15.8187 15.0018C15.6046 15.3254 15.3275 15.6025 15.0039 15.8166C14.2793 16.2961 13.2732 16.2961 11.2611 16.2961C9.24902 16.2961 8.24297 16.2961 7.51834 15.8166C7.19476 15.6025 6.91765 15.3254 6.70354 15.0018C6.22408 14.2772 6.22408 13.2711 6.22408 11.259ZM13.8701 11.2605C13.8701 12.7007 12.7026 13.8682 11.2624 13.8682C9.82218 13.8682 8.65466 12.7007 8.65466 11.2605C8.65466 9.8203 9.82218 8.65278 11.2624 8.65278C12.7026 8.65278 13.8701 9.8203 13.8701 11.2605ZM11.2624 12.986C12.2153 12.986 12.9879 12.2135 12.9879 11.2605C12.9879 10.3076 12.2153 9.53504 11.2624 9.53504C10.3094 9.53504 9.53693 10.3076 9.53693 11.2605C9.53693 12.2135 10.3094 12.986 11.2624 12.986ZM13.9721 9.13563C14.3105 9.13563 14.5848 8.8613 14.5848 8.52289C14.5848 8.18449 14.3105 7.91015 13.9721 7.91015C13.6337 7.91015 13.3594 8.18449 13.3594 8.52289C13.3594 8.8613 13.6337 9.13563 13.9721 9.13563Z" fill="white"/>
</svg>
