<svg width="23" height="23" viewBox="0 0 23 23" fill="none" xmlns="http://www.w3.org/2000/svg">
<rect opacity="0.1" width="22.5185" height="22.5185" rx="4" fill="white"/>
<path d="M5.65765 6.23161C5.65765 5.87246 5.78378 5.57616 6.03603 5.34272C6.28828 5.10927 6.61622 4.99255 7.01982 4.99255C7.41622 4.99255 7.73693 5.10747 7.98198 5.33733C8.23423 5.57437 8.36036 5.88323 8.36036 6.26393C8.36036 6.60872 8.23784 6.89603 7.99279 7.12589C7.74054 7.36292 7.40901 7.48144 6.99819 7.48144H6.98738C6.59098 7.48144 6.27027 7.36292 6.02522 7.12589C5.78017 6.88885 5.65765 6.59075 5.65765 6.23161ZM5.79819 15.6592V8.46191H8.19819V15.6592H5.79819ZM9.52793 15.6592H11.9279V11.6404C11.9279 11.389 11.9568 11.195 12.0144 11.0585C12.1153 10.8143 12.2685 10.6078 12.4739 10.439C12.6793 10.2702 12.9369 10.1858 13.2468 10.1858C14.0541 10.1858 14.4577 10.7281 14.4577 11.8128V15.6592H16.8577V11.5326C16.8577 10.4695 16.6054 9.66326 16.1009 9.11377C15.5964 8.56427 14.9297 8.28952 14.1009 8.28952C13.1712 8.28952 12.4468 8.68818 11.9279 9.48548V9.50703H11.9171L11.9279 9.48548V8.46191H9.52793C9.54234 8.69176 9.54955 9.40646 9.54955 10.606C9.54955 11.8056 9.54234 13.49 9.52793 15.6592Z" fill="white"/>
</svg>
