<svg width="132" height="20" viewBox="0 0 132 20" fill="none" xmlns="http://www.w3.org/2000/svg">
<g clip-path="url(#clip0_1_23)">
<path d="M68.3156 11.1235L69.9038 16.0119H66.6478L68.3156 11.1235Z" fill="#00D1FF"/>
<path d="M0.201782 0.14917V19.8519H4.02643V6.02689H4.07846L8.63162 19.8519H11.7798L16.333 5.88892H16.385V19.8519H20.2097V0.14917H14.4597L10.3488 13.6983H10.2968L5.95178 0.14917H0.201782Z" fill="white"/>
<path d="M49.1658 3.7917V19.8519H53.2508V3.7917H58.8185V0.14917H43.598V3.7917H49.1658Z" fill="white"/>
<path d="M97.6664 19.8519L102.662 0.14917H98.655L95.611 13.7258H95.559L92.3847 0.14917H88.5602L85.3339 13.5603H85.2818L82.3419 0.14917H78.2568L83.1744 19.8519H87.3111L90.4071 6.44081H90.4592L93.6076 19.8519H97.6664Z" fill="white"/>
<path d="M106.755 0.14917V19.8519H110.839V0.14917H106.755Z" fill="white"/>
<path d="M116.247 0.14917V19.8519H120.072V6.66155H120.124L127.851 19.8519H131.936V0.14917H128.112V13.3671H128.06L120.306 0.14917H116.247Z" fill="white"/>
<path d="M63.3335 19.8519L68.2769 5.00589H68.3289L73.1424 19.8519H77.3835L70.4364 0.14917H66.2476L59.2227 19.8519H63.3335Z" fill="white"/>
<path d="M25.5822 16.2092V19.8517H39.4757V16.2092H25.5822Z" fill="white"/>
<path d="M27.2334 8.45142V11.818H37.8246V8.45142H27.2334Z" fill="white"/>
<path d="M25.5822 0.14917V3.7917H39.4757V0.14917H25.5822Z" fill="white"/>
</g>
<defs>
<clipPath id="clip0_1_23">
<rect width="132" height="20" fill="white"/>
</clipPath>
</defs>
</svg>
