<svg width="269" height="84" viewBox="0 0 269 84" fill="none" xmlns="http://www.w3.org/2000/svg">
<rect width="269" height="84" rx="8" fill="#2F0142"/>
<path d="M204.456 42.4932L217.413 58.7536C218.457 60.0638 217.524 62 215.849 62L187 62C185.895 62 185 61.1046 185 60L185 23C185 21.8954 185.895 21 187 21L215.78 21C217.467 21 218.396 22.9605 217.328 24.2664L204.472 39.9804C203.876 40.7096 203.869 41.7563 204.456 42.4932Z" fill="url(#paint0_linear_8_85813)"/>
<path d="M64.544 40.5068L51.5869 24.2464C50.5429 22.9362 51.4758 21 53.151 21L82 21C83.1046 21 84 21.8954 84 23L84 60C84 61.1046 83.1046 62 82 62L53.2202 62C51.533 62 50.6039 60.0395 51.6722 58.7336L64.5279 43.0196C65.1245 42.2904 65.1312 41.2437 64.544 40.5068Z" fill="url(#paint1_linear_8_85813)"/>
<rect x="76" y="16" width="115" height="39" rx="3" fill="#FFC72E"/>
<path d="M92.5112 31.5455H94.9764L97.5801 37.8977H97.6909L100.295 31.5455H102.76V41H100.821V34.8462H100.742L98.2956 40.9538H96.9753L94.5286 34.8232H94.4501V41H92.5112V31.5455ZM104.407 41V31.5455H110.777V33.1935H106.406V35.4464H110.45V37.0945H106.406V39.3519H110.796V41H104.407ZM112.007 33.1935V31.5455H119.771V33.1935H116.877V41H114.901V33.1935H112.007ZM121.525 41H119.383L122.646 31.5455H125.222L128.482 41H126.34L123.971 33.706H123.897L121.525 41ZM121.391 37.2837H126.45V38.8441H121.391V37.2837ZM130.796 41L128.09 31.5455H130.274L131.839 38.1147H131.917L133.644 31.5455H135.514L137.236 38.1286H137.319L138.884 31.5455H141.067L138.362 41H136.414L134.613 34.8185H134.54L132.744 41H130.796ZM142.137 41V31.5455H144.136V35.4464H148.194V31.5455H150.188V41H148.194V37.0945H144.136V41H142.137ZM151.836 41V31.5455H158.207V33.1935H153.835V35.4464H157.879V37.0945H153.835V39.3519H158.226V41H151.836ZM159.796 41V31.5455H166.167V33.1935H161.795V35.4464H165.839V37.0945H161.795V39.3519H166.186V41H159.796ZM167.756 41V31.5455H169.755V39.3519H173.809V41H167.756Z" fill="black"/>
<path d="M110.972 62.6364C110.938 62.3485 110.8 62.125 110.558 61.9659C110.315 61.8068 110.018 61.7273 109.665 61.7273C109.408 61.7273 109.183 61.7689 108.989 61.8523C108.798 61.9356 108.648 62.0502 108.54 62.196C108.434 62.3419 108.381 62.5076 108.381 62.6932C108.381 62.8485 108.418 62.982 108.492 63.0938C108.568 63.2036 108.665 63.2955 108.782 63.3693C108.899 63.4413 109.022 63.5009 109.151 63.5483C109.28 63.5937 109.398 63.6307 109.506 63.6591L110.097 63.8182C110.249 63.858 110.417 63.9129 110.603 63.983C110.79 64.053 110.969 64.1487 111.14 64.2699C111.312 64.3892 111.454 64.5426 111.566 64.7301C111.678 64.9176 111.734 65.1477 111.734 65.4205C111.734 65.7348 111.651 66.0189 111.487 66.2727C111.324 66.5265 111.085 66.7282 110.771 66.8778C110.458 67.0275 110.078 67.1023 109.631 67.1023C109.215 67.1023 108.854 67.035 108.549 66.9006C108.246 66.7661 108.007 66.5786 107.833 66.3381C107.661 66.0975 107.563 65.8182 107.54 65.5H108.268C108.287 65.7197 108.361 65.9015 108.489 66.0455C108.62 66.1875 108.785 66.2936 108.984 66.3636C109.184 66.4318 109.4 66.4659 109.631 66.4659C109.9 66.4659 110.142 66.4223 110.356 66.3352C110.57 66.2462 110.739 66.1231 110.864 65.9659C110.989 65.8068 111.052 65.6212 111.052 65.4091C111.052 65.2159 110.998 65.0587 110.89 64.9375C110.782 64.8163 110.64 64.7178 110.464 64.642C110.288 64.5663 110.097 64.5 109.893 64.4432L109.177 64.2386C108.722 64.108 108.362 63.9214 108.097 63.679C107.832 63.4366 107.7 63.1193 107.7 62.7273C107.7 62.4015 107.788 62.1174 107.964 61.875C108.142 61.6307 108.38 61.4413 108.68 61.3068C108.981 61.1705 109.317 61.1023 109.688 61.1023C110.063 61.1023 110.397 61.1695 110.688 61.304C110.98 61.4366 111.211 61.6184 111.381 61.8494C111.554 62.0805 111.645 62.3428 111.654 62.6364H110.972ZM112.801 68.6364V62.6364H113.449V63.3295H113.528C113.578 63.2538 113.646 63.1572 113.733 63.0398C113.822 62.9205 113.949 62.8144 114.114 62.7216C114.28 62.6269 114.506 62.5795 114.79 62.5795C115.157 62.5795 115.481 62.6714 115.761 62.8551C116.042 63.0388 116.26 63.2992 116.418 63.6364C116.575 63.9735 116.653 64.3712 116.653 64.8295C116.653 65.2917 116.575 65.6922 116.418 66.0312C116.26 66.3684 116.043 66.6297 115.764 66.8153C115.486 66.9991 115.165 67.0909 114.801 67.0909C114.521 67.0909 114.296 67.0445 114.128 66.9517C113.959 66.857 113.83 66.75 113.739 66.6307C113.648 66.5095 113.578 66.4091 113.528 66.3295H113.472V68.6364H112.801ZM113.46 64.8182C113.46 65.1477 113.509 65.4384 113.605 65.6903C113.702 65.9403 113.843 66.1364 114.028 66.2784C114.214 66.4186 114.441 66.4886 114.71 66.4886C114.991 66.4886 115.224 66.4148 115.412 66.267C115.601 66.1174 115.743 65.9167 115.838 65.6648C115.935 65.411 115.983 65.1288 115.983 64.8182C115.983 64.5114 115.936 64.2348 115.841 63.9886C115.748 63.7405 115.607 63.5445 115.418 63.4006C115.23 63.2547 114.994 63.1818 114.71 63.1818C114.438 63.1818 114.208 63.2509 114.023 63.3892C113.837 63.5256 113.697 63.7169 113.602 63.9631C113.508 64.2074 113.46 64.4924 113.46 64.8182ZM117.676 67V62.6364H118.347V67H117.676ZM118.017 61.9091C117.886 61.9091 117.774 61.8646 117.679 61.7756C117.586 61.6866 117.54 61.5795 117.54 61.4545C117.54 61.3295 117.586 61.2225 117.679 61.1335C117.774 61.0445 117.886 61 118.017 61C118.148 61 118.259 61.0445 118.352 61.1335C118.447 61.2225 118.494 61.3295 118.494 61.4545C118.494 61.5795 118.447 61.6866 118.352 61.7756C118.259 61.8646 118.148 61.9091 118.017 61.9091ZM120.245 64.375V67H119.575V62.6364H120.222V63.3182H120.279C120.381 63.0966 120.537 62.9186 120.745 62.7841C120.953 62.6477 121.222 62.5795 121.552 62.5795C121.847 62.5795 122.106 62.6402 122.327 62.7614C122.549 62.8807 122.721 63.0625 122.844 63.3068C122.968 63.5492 123.029 63.8561 123.029 64.2273V67H122.359V64.2727C122.359 63.9299 122.27 63.6629 122.092 63.4716C121.914 63.2784 121.669 63.1818 121.359 63.1818C121.145 63.1818 120.953 63.2282 120.785 63.321C120.618 63.4138 120.487 63.5492 120.39 63.7273C120.293 63.9053 120.245 64.1212 120.245 64.375ZM127.788 67.1023C127.512 67.1023 127.261 67.0502 127.036 66.946C126.81 66.84 126.631 66.6875 126.499 66.4886C126.366 66.2879 126.3 66.0455 126.3 65.7614C126.3 65.5114 126.349 65.3087 126.447 65.1534C126.546 64.9962 126.678 64.8731 126.842 64.7841C127.007 64.6951 127.189 64.6288 127.388 64.5852C127.589 64.5398 127.79 64.5038 127.993 64.4773C128.258 64.4432 128.473 64.4176 128.638 64.4006C128.804 64.3816 128.926 64.3504 129.001 64.3068C129.079 64.2633 129.118 64.1875 129.118 64.0795V64.0568C129.118 63.7765 129.041 63.5587 128.888 63.4034C128.736 63.2481 128.506 63.1705 128.197 63.1705C127.877 63.1705 127.626 63.2405 127.445 63.3807C127.263 63.5208 127.135 63.6705 127.061 63.8295L126.425 63.6023C126.538 63.3371 126.69 63.1307 126.879 62.983C127.071 62.8333 127.279 62.7292 127.504 62.6705C127.732 62.6098 127.955 62.5795 128.175 62.5795C128.315 62.5795 128.476 62.5966 128.658 62.6307C128.841 62.6629 129.018 62.7301 129.189 62.8324C129.361 62.9347 129.504 63.089 129.618 63.2955C129.732 63.5019 129.788 63.7784 129.788 64.125V67H129.118V66.4091H129.084C129.038 66.5038 128.963 66.6051 128.857 66.7131C128.75 66.821 128.609 66.9129 128.433 66.9886C128.257 67.0644 128.042 67.1023 127.788 67.1023ZM127.891 66.5C128.156 66.5 128.379 66.4479 128.561 66.3438C128.745 66.2396 128.883 66.1051 128.976 65.9403C129.071 65.7756 129.118 65.6023 129.118 65.4205V64.8068C129.089 64.8409 129.027 64.8722 128.93 64.9006C128.836 64.9271 128.726 64.9508 128.601 64.9716C128.478 64.9905 128.357 65.0076 128.24 65.0227C128.125 65.036 128.031 65.0473 127.959 65.0568C127.785 65.0795 127.622 65.1165 127.47 65.1676C127.321 65.2169 127.199 65.2917 127.107 65.392C127.016 65.4905 126.97 65.625 126.97 65.7955C126.97 66.0284 127.056 66.2045 127.229 66.3239C127.403 66.4413 127.624 66.5 127.891 66.5ZM131.683 64.375V67H131.012V62.6364H131.66V63.3182H131.717C131.819 63.0966 131.974 62.9186 132.183 62.7841C132.391 62.6477 132.66 62.5795 132.989 62.5795C133.285 62.5795 133.543 62.6402 133.765 62.7614C133.987 62.8807 134.159 63.0625 134.282 63.3068C134.405 63.5492 134.467 63.8561 134.467 64.2273V67H133.796V64.2727C133.796 63.9299 133.707 63.6629 133.529 63.4716C133.351 63.2784 133.107 63.1818 132.796 63.1818C132.582 63.1818 132.391 63.2282 132.222 63.321C132.056 63.4138 131.924 63.5492 131.827 63.7273C131.731 63.9053 131.683 64.1212 131.683 64.375ZM137.339 67.0909C136.976 67.0909 136.655 66.9991 136.376 66.8153C136.098 66.6297 135.88 66.3684 135.723 66.0312C135.566 65.6922 135.487 65.2917 135.487 64.8295C135.487 64.3712 135.566 63.9735 135.723 63.6364C135.88 63.2992 136.099 63.0388 136.379 62.8551C136.66 62.6714 136.983 62.5795 137.351 62.5795C137.635 62.5795 137.859 62.6269 138.024 62.7216C138.191 62.8144 138.318 62.9205 138.405 63.0398C138.494 63.1572 138.563 63.2538 138.612 63.3295H138.669V61.1818H139.339V67H138.692V66.3295H138.612C138.563 66.4091 138.493 66.5095 138.402 66.6307C138.311 66.75 138.181 66.857 138.013 66.9517C137.844 67.0445 137.62 67.0909 137.339 67.0909ZM137.43 66.4886C137.699 66.4886 137.927 66.4186 138.112 66.2784C138.298 66.1364 138.439 65.9403 138.536 65.6903C138.632 65.4384 138.68 65.1477 138.68 64.8182C138.68 64.4924 138.633 64.2074 138.538 63.9631C138.444 63.7169 138.304 63.5256 138.118 63.3892C137.932 63.2509 137.703 63.1818 137.43 63.1818C137.146 63.1818 136.91 63.2547 136.72 63.4006C136.533 63.5445 136.392 63.7405 136.297 63.9886C136.204 64.2348 136.158 64.5114 136.158 64.8182C136.158 65.1288 136.205 65.411 136.3 65.6648C136.396 65.9167 136.538 66.1174 136.726 66.267C136.915 66.4148 137.15 66.4886 137.43 66.4886ZM144.058 67L142.467 61.1818H143.183L144.399 65.9205H144.456L145.695 61.1818H146.49L147.729 65.9205H147.786L149.001 61.1818H149.717L148.126 67H147.399L146.115 62.3636H146.07L144.786 67H144.058ZM151.3 61.1818V67H150.595V61.1818H151.3ZM153.292 64.375V67H152.621V62.6364H153.269V63.3182H153.326C153.428 63.0966 153.584 62.9186 153.792 62.7841C154 62.6477 154.269 62.5795 154.599 62.5795C154.894 62.5795 155.153 62.6402 155.374 62.7614C155.596 62.8807 155.768 63.0625 155.891 63.3068C156.014 63.5492 156.076 63.8561 156.076 64.2273V67H155.406V64.2727C155.406 63.9299 155.317 63.6629 155.138 63.4716C154.96 63.2784 154.716 63.1818 154.406 63.1818C154.192 63.1818 154 63.2282 153.832 63.321C153.665 63.4138 153.533 63.5492 153.437 63.7273C153.34 63.9053 153.292 64.1212 153.292 64.375ZM158.188 61.1818L158.131 65.3636H157.472L157.415 61.1818H158.188ZM157.801 67.0455C157.661 67.0455 157.541 66.9953 157.44 66.8949C157.34 66.7945 157.29 66.6742 157.29 66.5341C157.29 66.3939 157.34 66.2737 157.44 66.1733C157.541 66.0729 157.661 66.0227 157.801 66.0227C157.941 66.0227 158.062 66.0729 158.162 66.1733C158.262 66.2737 158.312 66.3939 158.312 66.5341C158.312 66.6269 158.289 66.7121 158.241 66.7898C158.196 66.8674 158.134 66.9299 158.057 66.9773C157.981 67.0227 157.896 67.0455 157.801 67.0455Z" fill="white"/>
<defs>
<linearGradient id="paint0_linear_8_85813" x1="177.391" y1="21" x2="202.5" y2="21" gradientUnits="userSpaceOnUse">
<stop stop-color="#D3A21A"/>
<stop offset="1" stop-color="#FFC72E"/>
</linearGradient>
<linearGradient id="paint1_linear_8_85813" x1="91.6087" y1="62" x2="66.5" y2="62" gradientUnits="userSpaceOnUse">
<stop stop-color="#D3A21A"/>
<stop offset="1" stop-color="#FFC72E"/>
</linearGradient>
</defs>
</svg>
