<svg width="360" height="360" viewBox="0 0 360 360" fill="none" xmlns="http://www.w3.org/2000/svg">
<g clip-path="url(#clip0_1_234)">
<path d="M360 179.991C360 279.397 279.414 360 180.009 360C80.6032 360 0 279.397 0 179.991C0 80.5859 75.9547 4.70055 171.371 0.190797C174.233 0.0693809 177.112 0 179.991 0C182.871 0 185.75 0.0520357 188.612 0.190797C284.011 4.70055 359.983 83.4652 359.983 179.991H360Z" fill="url(#paint0_linear_1_234)"/>
<path d="M179.991 357.207C277.865 357.207 357.207 277.865 357.207 179.991C357.207 82.1176 277.865 2.77527 179.991 2.77527C82.1176 2.77527 2.77524 82.1176 2.77524 179.991C2.77524 277.865 82.1176 357.207 179.991 357.207Z" fill="url(#paint1_linear_1_234)"/>
<path d="M179.991 332.785C264.377 332.785 332.785 264.377 332.785 179.991C332.785 95.6055 264.377 27.1973 179.991 27.1973C95.6055 27.1973 27.1973 95.6055 27.1973 179.991C27.1973 264.377 95.6055 332.785 179.991 332.785Z" fill="url(#paint2_linear_1_234)"/>
<path d="M286.005 285.988C299.986 272.008 310.618 255.946 317.92 238.809L180.009 179.991L238.826 317.903C255.963 310.601 272.025 299.968 286.005 285.988Z" fill="#70008C"/>
<path d="M73.9947 285.988C87.9749 299.968 104.037 310.601 121.174 317.903L179.991 179.991L42.0795 238.809C49.3818 255.946 60.0145 272.008 73.9947 285.988Z" fill="#70008C"/>
<path d="M73.9947 73.9947C60.0145 87.9749 49.3818 104.037 42.0795 121.174L179.991 179.991L121.174 42.0795C104.037 49.3818 87.9749 60.0144 73.9947 73.9947Z" fill="#70008C"/>
<path d="M286.005 73.9947C272.025 60.0144 255.963 49.3818 238.826 42.0795L180.009 179.991L317.92 121.174C310.618 104.037 299.986 87.9749 286.005 73.9947Z" fill="#70008C"/>
<path d="M315.024 245.175C324.564 225.47 329.906 203.355 329.906 179.991C329.906 156.627 324.564 134.512 315.024 114.808C316.047 116.907 317.001 119.04 317.92 121.174L180.009 179.991L317.92 238.809C317.001 240.942 316.047 243.076 315.024 245.175Z" fill="#231F20"/>
<path d="M44.9761 114.808C35.4363 134.512 30.0939 156.627 30.0939 179.991C30.0939 203.355 35.4363 225.47 44.9761 245.175C43.9528 243.076 42.9988 240.942 42.0795 238.809L179.991 179.991L42.0795 121.174C42.9988 119.04 43.9528 116.907 44.9761 114.808Z" fill="#231F20"/>
<path d="M245.192 44.9588C225.488 35.4189 203.373 30.0766 180.009 30.0766C156.645 30.0766 134.53 35.4189 114.825 44.9588C116.924 43.9528 119.058 42.9814 121.191 42.0621L180.009 179.974L238.826 42.0795C240.96 42.9988 243.093 43.9528 245.192 44.9761V44.9588Z" fill="#231F20"/>
<path d="M238.826 317.903L180.009 179.991L121.191 317.903C119.058 316.984 116.924 316.03 114.825 315.007C134.53 324.546 156.645 329.889 180.009 329.889C203.373 329.889 225.488 324.546 245.192 315.007C243.093 316.03 240.96 316.984 238.826 317.903Z" fill="#231F20"/>
<path style="mix-blend-mode:multiply" d="M180.009 329.906C262.804 329.906 329.923 262.787 329.923 179.991C329.923 97.1957 262.804 30.0766 180.009 30.0766C97.2131 30.0766 30.0939 97.1957 30.0939 179.991C30.0939 262.787 97.2131 329.906 180.009 329.906Z" fill="url(#paint3_radial_1_234)"/>
<g style="mix-blend-mode:overlay">
<path d="M179.991 48.0983L205.229 119.058L273.257 86.7261L240.925 154.754L311.902 179.991L240.925 205.229L273.257 273.257L205.229 240.925L179.991 311.884L154.754 240.925L86.7261 273.257L119.075 205.229L48.0983 179.991L119.075 154.754L86.7261 86.7261L154.754 119.058L179.991 48.0983Z" fill="#666666"/>
</g>
<g style="mix-blend-mode:overlay">
<path d="M179.991 138.762L187.883 160.946L209.149 150.834L199.036 172.099L221.221 179.991L199.036 187.883L209.149 209.149L187.883 199.036L179.991 221.221L172.117 199.036L150.851 209.149L160.946 187.883L138.779 179.991L160.946 172.099L150.851 150.834L172.117 160.946L179.991 138.762Z" fill="#383838"/>
</g>
<path style="mix-blend-mode:multiply" opacity="0.6" d="M175.863 212.08C190.98 212.08 203.234 199.826 203.234 184.709C203.234 169.593 190.98 157.338 175.863 157.338C160.747 157.338 148.492 169.593 148.492 184.709C148.492 199.826 160.747 212.08 175.863 212.08Z" fill="url(#paint4_radial_1_234)"/>
<path d="M194.604 194.599C202.671 186.531 202.671 173.451 194.604 165.384C186.536 157.316 173.456 157.316 165.389 165.384C157.321 173.451 157.321 186.531 165.389 194.599C173.456 202.666 186.536 202.666 194.604 194.599Z" fill="url(#paint5_linear_1_234)"/>
<path d="M194.142 191.984C200.75 184.174 199.775 172.485 191.964 165.877C184.153 159.27 172.464 160.245 165.857 168.056C159.249 175.867 160.224 187.555 168.035 194.163C175.846 200.771 187.535 199.795 194.142 191.984Z" fill="url(#paint6_linear_1_234)"/>
<path d="M194.7 94.6784L190.125 112.228H184.95L182.15 100.678L179.25 112.228H174.075L169.625 94.6784H174.2L176.725 107.453L179.85 94.6784H184.55L187.55 107.453L190.1 94.6784H194.7Z" fill="white"/>
<path d="M166.3 267.576L170.875 250.026H176.05L178.85 261.576L181.75 250.026H186.925L191.375 267.576H186.8L184.275 254.801L181.15 267.576H176.45L173.45 254.801L170.9 267.576H166.3Z" fill="white"/>
<path d="M265.322 191.069L247.772 186.494V181.319L259.322 178.519L247.772 175.619V170.444L265.322 165.994V170.569L252.547 173.094L265.322 176.219V180.919L252.547 183.919L265.322 186.469V191.069Z" fill="white"/>
<path d="M93.1867 172.504L110.737 177.079V182.254L99.1867 185.054L110.737 187.954V193.129L93.1867 197.579V193.004L105.962 190.479L93.1867 187.354V182.654L105.962 179.654L93.1867 177.104V172.504Z" fill="white"/>
<path d="M231.802 127.225L235.762 131.185L233.429 133.518L226.446 126.536L238.856 114.126L241.879 117.149L231.802 127.225Z" fill="white"/>
<path d="M128.683 233.191L124.723 229.231L127.057 226.898L134.04 233.881L121.63 246.29L118.607 243.268L128.683 233.191Z" fill="white"/>
<path d="M131.128 132.95L135.087 128.99L137.421 131.324L130.438 138.306L118.029 125.897L121.051 122.874L131.128 132.95Z" fill="white"/>
<path d="M229.653 230.363L225.693 234.323L223.36 231.989L230.342 225.006L242.752 237.416L239.729 240.439L229.653 230.363Z" fill="white"/>
</g>
<defs>
<linearGradient id="paint0_linear_1_234" x1="302.414" y1="57.5861" x2="43.814" y2="316.169" gradientUnits="userSpaceOnUse">
<stop stop-color="#FEDC31"/>
<stop offset="0.09" stop-color="#FDC347"/>
<stop offset="0.27" stop-color="#FC8682"/>
<stop offset="0.52" stop-color="#FA2CD7"/>
<stop offset="0.76" stop-color="#987CDB"/>
<stop offset="1" stop-color="#33D0E0"/>
</linearGradient>
<linearGradient id="paint1_linear_1_234" x1="300.523" y1="59.4768" x2="45.9128" y2="314.07" gradientUnits="userSpaceOnUse">
<stop stop-color="#000604"/>
<stop offset="0.4" stop-color="#303030"/>
<stop offset="1" stop-color="#000604"/>
</linearGradient>
<linearGradient id="paint2_linear_1_234" x1="78.5912" y1="78.5911" x2="278.547" y2="278.547" gradientUnits="userSpaceOnUse">
<stop stop-color="#FEDC31"/>
<stop offset="0.09" stop-color="#FDC347"/>
<stop offset="0.27" stop-color="#FC8682"/>
<stop offset="0.52" stop-color="#FA2CD7"/>
<stop offset="0.76" stop-color="#987CDB"/>
<stop offset="1" stop-color="#33D0E0"/>
</linearGradient>
<radialGradient id="paint3_radial_1_234" cx="0" cy="0" r="1" gradientUnits="userSpaceOnUse" gradientTransform="translate(180.009 179.991) scale(149.915)">
<stop offset="0.81" stop-color="white"/>
<stop offset="0.87" stop-color="#FCFCFD"/>
<stop offset="0.91" stop-color="#F3F4F6"/>
<stop offset="0.94" stop-color="#E9ECF0"/>
<stop offset="0.97" stop-color="#B9C3CE"/>
<stop offset="1" stop-color="#899BAD"/>
</radialGradient>
<radialGradient id="paint4_radial_1_234" cx="0" cy="0" r="1" gradientUnits="userSpaceOnUse" gradientTransform="translate(175.863 184.709) scale(27.3708)">
<stop offset="0.63" stop-color="#662E29"/>
<stop offset="0.66" stop-color="#75423E"/>
<stop offset="0.78" stop-color="#AF9290"/>
<stop offset="0.88" stop-color="#DACDCB"/>
<stop offset="0.96" stop-color="#F4F1F0"/>
<stop offset="1" stop-color="white"/>
</radialGradient>
<linearGradient id="paint5_linear_1_234" x1="166.615" y1="166.592" x2="197.923" y2="197.918" gradientUnits="userSpaceOnUse">
<stop stop-color="#FEDC31"/>
<stop offset="0.09" stop-color="#FDC347"/>
<stop offset="0.27" stop-color="#FC8682"/>
<stop offset="0.52" stop-color="#FA2CD7"/>
<stop offset="0.76" stop-color="#987CDB"/>
<stop offset="1" stop-color="#33D0E0"/>
</linearGradient>
<linearGradient id="paint6_linear_1_234" x1="195.379" y1="164.642" x2="158" y2="202.003" gradientUnits="userSpaceOnUse">
<stop offset="0.28" stop-color="#303030"/>
<stop offset="1" stop-color="#000604"/>
</linearGradient>
<clipPath id="clip0_1_234">
<rect width="360" height="360" fill="white"/>
</clipPath>
</defs>
</svg>
