<svg width="23" height="23" viewBox="0 0 23 23" fill="none" xmlns="http://www.w3.org/2000/svg">
<rect opacity="0.1" y="0.000183105" width="22.5185" height="22.5185" rx="4" fill="white"/>
<path d="M13.0808 6.86108V6.85913H13.5894L13.7752 6.89625C13.8991 6.92034 14.0116 6.95192 14.1127 6.99098C14.2137 7.03005 14.3115 7.07563 14.4061 7.12772C14.5006 7.17981 14.5864 7.23288 14.6633 7.28692C14.7396 7.34032 14.8081 7.39697 14.8687 7.45687C14.9287 7.51742 15.0223 7.53305 15.1494 7.50375C15.2765 7.47445 15.4135 7.43375 15.5602 7.38166C15.7069 7.32957 15.852 7.27097 15.9954 7.20586C16.1389 7.14074 16.2262 7.0994 16.2575 7.08182C16.2882 7.06359 16.3045 7.05382 16.3064 7.05252L16.3084 7.04959L16.3182 7.0447L16.3279 7.03982L16.3377 7.03494L16.3475 7.03005L16.3495 7.02712L16.3524 7.02517L16.3553 7.02322L16.3573 7.02029L16.3671 7.01736L16.3768 7.0154L16.3749 7.03005L16.372 7.0447L16.3671 7.05935L16.3622 7.074L16.3573 7.08377L16.3524 7.09354L16.3475 7.10819C16.3442 7.11795 16.341 7.13097 16.3377 7.14726C16.3345 7.16354 16.3035 7.22864 16.2448 7.34259C16.1861 7.45654 16.1128 7.57212 16.0247 7.68932C15.9367 7.80652 15.8578 7.89507 15.7881 7.95498C15.7177 8.01553 15.671 8.05786 15.6482 8.08195C15.6254 8.10669 15.5977 8.12948 15.5651 8.15032L15.5162 8.18255L15.5064 8.18743L15.4966 8.19232L15.4947 8.19525L15.4917 8.1972L15.4888 8.19915L15.4868 8.20208L15.477 8.20697L15.4673 8.21185L15.4653 8.21478L15.4624 8.21673L15.4594 8.21869L15.4575 8.22162L15.4555 8.22455L15.4526 8.2265L15.4497 8.22845L15.4477 8.23138H15.4966L15.7705 8.17278C15.953 8.13371 16.1274 8.08651 16.2937 8.03116L16.5578 7.94326L16.5871 7.93349L16.6018 7.92861L16.6116 7.92373L16.6214 7.91884L16.6311 7.91396L16.6409 7.90908L16.6605 7.90615L16.68 7.90419V7.92373L16.6751 7.92568L16.6703 7.92861L16.6683 7.93154L16.6654 7.93349L16.6624 7.93545L16.6605 7.93838L16.6585 7.94131L16.6556 7.94326L16.6527 7.94521L16.6507 7.94814L16.6487 7.95107L16.6458 7.95303L16.6409 7.96279L16.636 7.97256L16.6331 7.97451C16.6318 7.97647 16.5904 8.03181 16.5089 8.14055C16.4274 8.24994 16.3834 8.30528 16.3768 8.30659C16.3703 8.30854 16.3612 8.31831 16.3495 8.33589C16.3384 8.35412 16.2693 8.42672 16.1421 8.55369C16.015 8.68066 15.8904 8.79363 15.7685 8.8926C15.6459 8.99223 15.584 9.11464 15.5827 9.25984C15.5807 9.40439 15.5732 9.56783 15.5602 9.75014C15.5471 9.93246 15.5227 10.1294 15.4868 10.341C15.451 10.5527 15.3955 10.7919 15.3206 11.0589C15.2456 11.3259 15.1543 11.5863 15.0467 11.8403C14.9391 12.0942 14.8266 12.3221 14.7093 12.5239C14.5919 12.7258 14.4843 12.8967 14.3865 13.0367C14.2887 13.1767 14.1893 13.3086 14.0882 13.4323C13.9872 13.556 13.8594 13.6953 13.7048 13.8503C13.5496 14.0046 13.4649 14.0893 13.4505 14.1042C13.4356 14.1186 13.3717 14.172 13.2588 14.2644C13.1467 14.3575 13.0261 14.4506 12.897 14.5437C12.7685 14.6362 12.6505 14.7134 12.5429 14.7752C12.4353 14.8371 12.3056 14.9077 12.1536 14.9872C12.0024 15.0673 11.8387 15.1415 11.6627 15.2099C11.4866 15.2782 11.3008 15.3417 11.1052 15.4003C10.9096 15.4589 10.7205 15.5045 10.5379 15.537C10.3554 15.5696 10.1483 15.5973 9.91686 15.6201L9.56966 15.6542V15.6591H8.93393V15.6542L8.85079 15.6494C8.79538 15.6461 8.74973 15.6428 8.71387 15.6396C8.67801 15.6363 8.54271 15.6184 8.30798 15.5859C8.07325 15.5533 7.88905 15.5208 7.75538 15.4882C7.62172 15.4557 7.42285 15.3938 7.15878 15.3026C6.8947 15.2115 6.66878 15.1193 6.48099 15.0262C6.29386 14.9338 6.1765 14.8752 6.1289 14.8504C6.08195 14.8263 6.02914 14.7964 5.97045 14.7606L5.88243 14.7069L5.88048 14.7039L5.87754 14.702L5.8746 14.7L5.87265 14.6971L5.86287 14.6922L5.85309 14.6873L5.85114 14.6844L5.8482 14.6824L5.84526 14.6805L5.84331 14.6776L5.84136 14.6746L5.83842 14.6727H5.83353V14.6531L5.84331 14.6551L5.85309 14.658L5.8971 14.6629C5.92644 14.6662 6.00632 14.671 6.13672 14.6776C6.26713 14.6841 6.40568 14.6841 6.55239 14.6776C6.6991 14.671 6.84907 14.6564 7.00229 14.6336C7.15552 14.6108 7.33646 14.5718 7.5451 14.5164C7.75376 14.4611 7.94546 14.3953 8.1202 14.3191C8.2943 14.2423 8.41817 14.185 8.49186 14.1472C8.56488 14.1101 8.67638 14.0411 8.82634 13.9402L9.05129 13.7888L9.05325 13.7858L9.05618 13.7839L9.05913 13.7819L9.06107 13.779L9.06303 13.7761L9.06596 13.7741L9.06891 13.7722L9.07085 13.7692L9.08063 13.7663L9.09041 13.7643L9.09237 13.7546L9.0953 13.7448L9.09825 13.7429L9.10019 13.7399L9.02195 13.735C8.96979 13.7318 8.91926 13.7285 8.87035 13.7253C8.82145 13.722 8.74484 13.7074 8.64051 13.6813C8.5362 13.6553 8.42372 13.6162 8.30309 13.5641C8.18247 13.512 8.0651 13.4502 7.95099 13.3786C7.83689 13.3069 7.75441 13.2473 7.70355 13.1998C7.65334 13.1529 7.58814 13.0865 7.50794 13.0006C7.42839 12.914 7.35928 12.8251 7.30059 12.7339C7.24191 12.6428 7.18584 12.5376 7.13238 12.4185L7.05119 12.2407L7.0463 12.2261L7.04141 12.2114L7.03848 12.2016L7.03652 12.1919L7.05119 12.1938L7.06586 12.1968L7.17345 12.2114C7.24518 12.2212 7.35765 12.2244 7.51087 12.2212C7.6641 12.2179 7.77005 12.2114 7.82874 12.2016C7.88742 12.1919 7.92328 12.1854 7.93632 12.1821L7.95588 12.1772L7.98033 12.1723L8.00478 12.1675L8.00674 12.1645L8.00967 12.1626L8.01262 12.1606L8.01456 12.1577L7.995 12.1528L7.97544 12.1479L7.95588 12.143L7.93632 12.1382L7.91676 12.1333C7.90372 12.13 7.88091 12.1235 7.8483 12.1137C7.8157 12.104 7.72768 12.0682 7.58423 12.0063C7.44079 11.9444 7.32668 11.8842 7.24191 11.8256C7.15693 11.7668 7.07591 11.7026 6.99936 11.6332C6.92307 11.5629 6.83929 11.4724 6.748 11.3617C6.65672 11.251 6.57522 11.1224 6.50349 10.9759C6.43177 10.8294 6.37797 10.6894 6.34211 10.5559C6.30639 10.4232 6.28282 10.2875 6.2717 10.1506L6.25409 9.94548L6.26387 9.94743L6.27365 9.95036L6.28343 9.95525L6.29321 9.96013L6.30299 9.96501L6.31277 9.9699L6.46437 10.0383C6.56544 10.0838 6.69095 10.1229 6.84091 10.1555C6.99089 10.188 7.08053 10.2059 7.10987 10.2092L7.15389 10.2141H7.24191L7.23996 10.2111L7.23702 10.2092L7.23409 10.2072L7.23213 10.2043L7.23018 10.2014L7.22724 10.1994L7.22431 10.1975L7.22235 10.1945L7.21257 10.1897L7.20279 10.1848L7.20084 10.1818L7.1979 10.1799L7.19496 10.1779L7.19301 10.175L7.18323 10.1701L7.17345 10.1652L7.1715 10.1623C7.16954 10.161 7.1415 10.1402 7.08738 10.0998C7.03391 10.0588 6.97784 10.0057 6.91916 9.9406C6.86047 9.87548 6.80179 9.80711 6.74311 9.73549C6.68432 9.66371 6.63195 9.5869 6.58662 9.50597C6.54099 9.42458 6.49273 9.32104 6.44187 9.19538C6.39167 9.07036 6.35352 8.94437 6.32744 8.8174C6.30136 8.69043 6.28669 8.56509 6.28343 8.44137C6.28017 8.31766 6.28343 8.21185 6.29321 8.12395C6.30299 8.03605 6.32255 7.93675 6.35189 7.82606C6.38123 7.71537 6.42362 7.59816 6.47904 7.47445L6.56217 7.28888L6.56706 7.27423L6.57195 7.25957L6.57489 7.25762L6.57684 7.25469L6.5788 7.25176L6.58173 7.24981L6.58467 7.25176L6.58662 7.25469L6.58858 7.25762L6.59151 7.25957L6.59445 7.26153L6.5964 7.26446L6.59836 7.26739L6.60129 7.26934L6.60618 7.27911L6.61107 7.28888L6.61402 7.29083L6.61596 7.29376L6.748 7.44026C6.83602 7.53793 6.94035 7.647 7.06097 7.76745C7.1816 7.88791 7.24843 7.95042 7.26147 7.95498C7.27452 7.96019 7.29081 7.97516 7.31037 7.99991C7.32993 8.024 7.39514 8.08163 7.50598 8.17278C7.61683 8.26394 7.76191 8.36975 7.94121 8.49021C8.12053 8.61066 8.31939 8.7295 8.53782 8.8467C8.75626 8.9639 8.99099 9.06971 9.24201 9.16413C9.49305 9.25854 9.66909 9.3204 9.77015 9.3497C9.87123 9.379 10.044 9.41643 10.2885 9.46202C10.533 9.5076 10.7172 9.5369 10.8411 9.54992C10.965 9.56294 11.0498 9.57043 11.0954 9.57238L11.1639 9.57434L11.1619 9.55969L11.159 9.54504L11.1394 9.42295C11.1264 9.34156 11.1199 9.22761 11.1199 9.08111C11.1199 8.9346 11.1313 8.7995 11.1541 8.67578C11.1769 8.55206 11.2111 8.42672 11.2568 8.29975C11.3024 8.17278 11.3471 8.07087 11.3908 7.99405C11.4351 7.91787 11.4931 7.83094 11.5649 7.73327C11.6366 7.6356 11.7295 7.53468 11.8436 7.4305C11.9577 7.32631 12.0881 7.23353 12.2348 7.15214C12.3815 7.07075 12.5168 7.00889 12.6407 6.96657C12.7646 6.92425 12.8689 6.89657 12.9537 6.88355C13.0385 6.87053 13.0808 6.86304 13.0808 6.86108Z" fill="white"/>
</svg>
