<svg width="23" height="23" viewBox="0 0 23 23" fill="none" xmlns="http://www.w3.org/2000/svg">
<rect opacity="0.1" width="22.5185" height="22.5185" rx="4" fill="white"/>
<path d="M11.5467 15.8562L8.87199 15.8062C8.00599 15.7888 7.13782 15.8236 6.2888 15.6431C4.99723 15.3735 4.90573 14.0514 4.80999 12.9424C4.67806 11.3834 4.72914 9.79601 4.9781 8.24995C5.11864 7.38245 5.67175 6.8648 6.52711 6.80847C9.41459 6.60405 12.3213 6.62827 15.2023 6.72365C15.5066 6.73239 15.813 6.78018 16.113 6.83457C17.594 7.09987 17.6302 8.59807 17.7262 9.85928C17.8219 11.1335 17.7815 12.4143 17.5985 13.6798C17.4517 14.7276 17.1708 15.6063 15.9853 15.6912C14.5001 15.8021 13.0489 15.8914 11.5594 15.863C11.5595 15.8562 11.5509 15.8562 11.5467 15.8562ZM9.97423 13.2034C11.0935 12.5467 12.1914 11.9009 13.3043 11.2486C12.1829 10.5918 11.0871 9.94604 9.97423 9.29371V13.2034Z" fill="white"/>
</svg>
